<?xml version="1.0" standalone="no"?>
<!DOCTYPE svg PUBLIC "-//W3C//DTD SVG 20010904//EN"
 "http://www.w3.org/TR/2001/REC-SVG-20010904/DTD/svg10.dtd">
<svg version="1.0" xmlns="http://www.w3.org/2000/svg"
 width="46px" height="50px" viewBox="0 0 46 511.000000"
 preserveAspectRatio="xMidYMid meet">

<g transform="translate(0.000000,511.000000) scale(0.100000,-0.100000)"
fill="#000000" stroke="none">
<path d="M83 4923 c10 -198 73 -339 212 -478 91 -91 175 -144 290 -182 77 -26
91 -27 348 -31 l267 -4 0 -210 0 -210 -68 63 c-83 78 -171 131 -277 166 -80
27 -82 27 -429 31 l-349 4 6 -109 c10 -198 73 -339 212 -478 91 -91 175 -144
290 -182 77 -26 91 -27 348 -31 l267 -4 0 -399 c0 -311 -3 -400 -12 -403 -7
-2 -50 -8 -96 -14 -103 -14 -272 -70 -374 -124 -313 -167 -538 -467 -614 -818
-23 -106 -26 -352 -5 -455 74 -375 311 -689 649 -859 168 -84 329 -121 532
-121 157 0 236 12 372 56 299 97 558 320 702 606 128 254 159 558 85 838 -59
226 -198 448 -374 599 -81 69 -262 178 -355 214 -70 28 -199 61 -267 69 -29 3
-53 10 -53 14 0 5 -7 9 -15 9 -13 0 -15 24 -15 155 l0 155 230 0 c249 0 332
10 443 55 136 56 269 172 346 303 64 108 84 180 89 314 l4 117 -34 6 c-19 4
-174 5 -344 3 -304 -4 -310 -4 -389 -31 -106 -35 -194 -88 -277 -166 l-68 -63
0 210 0 210 268 4 c256 4 270 5 347 31 115 38 199 91 290 182 139 139 202 280
212 478 l6 108 -349 -3 c-348 -4 -349 -4 -429 -31 -105 -35 -194 -88 -276
-164 l-66 -63 -7 80 c-14 173 -82 317 -211 445 -91 91 -175 144 -290 182 -80
27 -82 27 -429 31 l-349 4 6 -109z m738 -84 c95 -37 152 -73 215 -136 64 -65
98 -120 131 -210 40 -112 57 -103 -200 -103 -190 0 -235 3 -301 20 -104 26
-187 72 -257 143 -68 67 -103 122 -136 214 -41 114 -62 105 230 101 240 -4
255 -5 318 -29z m1489 -469 c0 -28 -42 -140 -73 -192 -34 -59 -125 -150 -183
-184 -26 -15 -76 -39 -113 -53 -63 -24 -78 -25 -318 -29 -292 -4 -271 -13
-230 101 60 165 171 278 330 339 84 32 120 36 360 37 219 1 227 0 227 -19z
m-1489 -491 c95 -37 152 -73 215 -136 64 -65 98 -120 131 -210 41 -114 62
-105 -230 -101 -240 4 -255 5 -318 29 -95 37 -152 73 -215 136 -64 65 -98 120
-131 210 -41 114 -62 105 230 101 240 -4 255 -5 318 -29z m1489 -469 c0 -28
-42 -140 -73 -192 -34 -59 -125 -150 -183 -184 -26 -15 -76 -39 -113 -53 -63
-24 -78 -25 -318 -29 -292 -4 -271 -13 -230 101 60 165 171 278 330 339 84 32
120 36 360 37 219 1 227 0 227 -19z m-884 -1111 c153 -21 331 -92 459 -184 68
-48 205 -187 251 -255 81 -118 146 -280 169 -425 55 -338 -56 -668 -307 -911
-89 -86 -149 -130 -248 -179 -305 -153 -637 -152 -945 2 -104 53 -183 113
-276 210 -89 93 -124 142 -177 249 -149 296 -149 632 0 928 55 110 89 158 177
249 93 96 181 162 286 215 191 96 401 130 611 101z"/>
<path d="M1165 2143 c-60 -8 -181 -42 -239 -68 -70 -31 -196 -111 -196 -124 0
-12 89 -121 99 -121 4 0 16 9 26 19 25 28 169 97 245 118 47 13 99 18 190 17
107 -1 137 -5 205 -27 115 -38 198 -90 290 -182 131 -131 199 -277 212 -454
10 -141 -33 -322 -100 -421 -13 -19 -31 -47 -41 -62 l-17 -26 56 -46 c31 -25
61 -46 66 -46 5 0 29 31 54 68 228 353 181 807 -115 1102 -192 193 -470 288
-735 253z"/>
<path d="M1200 1750 l0 -80 -80 0 c-92 0 -135 -16 -150 -56 -14 -36 -12 -209
2 -258 16 -55 99 -138 154 -154 23 -7 92 -12 153 -12 105 0 113 -1 136 -25 21
-20 25 -34 25 -80 l0 -55 -135 0 c-131 0 -137 1 -160 25 -14 13 -25 31 -25 40
0 12 -15 15 -80 15 -67 0 -80 -3 -80 -16 0 -100 124 -224 224 -224 13 0 16
-13 16 -80 l0 -80 80 0 80 0 0 79 0 78 102 5 c135 7 138 10 138 160 0 143 -12
180 -75 243 -63 64 -100 75 -244 75 -105 0 -113 1 -136 25 -21 20 -25 34 -25
80 l0 55 135 0 c131 0 137 -1 160 -25 14 -13 25 -31 25 -40 0 -12 15 -15 80
-15 67 0 80 3 80 16 0 76 -80 182 -157 208 -26 9 -55 16 -65 16 -16 0 -18 9
-18 80 l0 80 -80 0 -80 0 0 -80z"/>
<path d="M545 1752 c-228 -353 -181 -807 115 -1102 283 -284 725 -341 1063
-138 109 65 114 71 95 100 -9 13 -31 40 -49 61 l-34 38 -60 -41 c-219 -147
-525 -157 -755 -23 -84 49 -215 180 -263 263 -134 231 -124 534 23 755 l40 60
-53 47 c-28 26 -58 48 -65 48 -7 0 -32 -31 -57 -68z"/>
</g>
</svg>
